<svg width="788" height="473" viewBox="0 0 788 473" fill="none" xmlns="http://www.w3.org/2000/svg">
<circle cx="144.82" cy="78.2494" r="64.2346" fill="#F0E137"/>
<path d="M764.975 470.664L637.479 342.529L573.731 214.393L509.983 150.326L484.484 111.885L458.985 73.4443L446.235 60.6308L420.736 73.4443L407.987 86.2578L382.487 111.885L318.74 60.6308L293.24 35.0037L254.992 22.1901L191.244 60.6308L127.496 111.885L63.7477 150.326L-0.000183105 470.664" fill="#7EA7C1"/>
<path d="M0 470.664L128.858 336.189L193.288 201.713L257.717 134.475L283.489 94.1328L309.26 53.7902L322.146 40.3426L347.918 53.7902L360.804 67.2377L386.575 94.1328L451.005 40.3426L476.776 13.4475L515.434 0L579.863 40.3426L644.292 94.1328L708.721 134.475L773.151 470.664" fill="#224963"/>
<path fill-rule="evenodd" clip-rule="evenodd" d="M382.488 473C473.757 473 547.746 399.011 547.746 307.742C547.746 216.472 473.757 142.484 382.488 142.484C291.218 142.484 217.229 216.472 217.229 307.742C217.229 399.011 291.218 473 382.488 473ZM382.488 430.847C453.651 430.847 511.341 373.158 511.341 301.994C511.341 230.83 453.651 173.141 382.488 173.141C311.324 173.141 253.634 230.83 253.634 301.994C253.634 373.158 311.324 430.847 382.488 430.847Z" fill="white"/>
<path d="M467.745 48.4679L498.544 30.3654L460.21 81.7531L467.745 48.4679Z" fill="white"/>
<path d="M200.085 74.1617L230.885 56.0593L192.55 107.447L200.085 74.1617Z" fill="white"/>
<path d="M588.038 94.016L510.373 29.8104L555.921 58.3951L588.038 94.016Z" fill="white"/>
<path d="M204.501 135.631L256.061 49.0519L234.786 98.439L204.501 135.631Z" fill="white"/>
<path d="M534.032 68.2201L507.192 45.5482L523.021 75.3593L552.644 153.335L534.032 68.2201Z" fill="#E4E8EB"/>
<path d="M331.684 279.222C331.684 290.78 323.579 300.151 313.581 300.151C303.584 300.151 295.479 290.78 295.479 279.222C295.479 267.663 312.473 226.713 313.581 225.405C313.581 225.405 331.684 267.663 331.684 279.222Z" fill="white"/>
<path d="M703.425 154.272L710.578 183.258L697.821 158.835L681.039 134.52L703.425 154.272Z" fill="white"/>
<path d="M728.715 346.283L666.816 203.215L678.495 160.586L686.142 210.806L728.715 346.283Z" fill="white"/>
<path d="M74.6852 178.637L118.549 124.914L88.2509 190.03L74.6859 268.617L74.6852 178.637Z" fill="white"/>
<path d="M432.185 112.119L439.131 87.5926L418.693 112.119L378.765 139.982L432.185 112.119Z" fill="white"/>
</svg>
